<?xml version="1.0" encoding="UTF-8" standalone="no"?>
<svg
   viewBox="0 0 512 512"
   version="1.1"
   id="svg2"
   sodipodi:docname="pause.svg"
   inkscape:version="1.4 (86a8ad7, 2024-10-11)"
   xmlns:inkscape="http://www.inkscape.org/namespaces/inkscape"
   xmlns:sodipodi="http://sodipodi.sourceforge.net/DTD/sodipodi-0.dtd"
   xmlns="http://www.w3.org/2000/svg"
   xmlns:svg="http://www.w3.org/2000/svg">
  <defs
     id="defs2" />
  <sodipodi:namedview
     id="namedview2"
     pagecolor="#505050"
     bordercolor="#eeeeee"
     borderopacity="1"
     inkscape:showpageshadow="0"
     inkscape:pageopacity="0"
     inkscape:pagecheckerboard="0"
     inkscape:deskcolor="#505050"
     inkscape:zoom="1.3554688"
     inkscape:cx="256"
     inkscape:cy="256"
     inkscape:window-width="1536"
     inkscape:window-height="938"
     inkscape:window-x="-6"
     inkscape:window-y="-6"
     inkscape:window-maximized="1"
     inkscape:current-layer="svg2" />
  <path
     d="M120.16 45A20.162 20.162 0 0 0 100 65.16v381.68A20.162 20.162 0 0 0 120.16 467h65.68A20.162 20.162 0 0 0 206 446.84V65.16A20.162 20.162 0 0 0 185.84 45h-65.68zm206 0A20.162 20.162 0 0 0 306 65.16v381.68A20.162 20.162 0 0 0 326.16 467h65.68A20.162 20.162 0 0 0 412 446.84V65.16A20.162 20.162 0 0 0 391.84 45h-65.68z"
     fill="#fff"
     id="path2" />
</svg>
